<?xml version="1.0" encoding="UTF-8" standalone="no"?>
<!DOCTYPE svg PUBLIC "-//W3C//DTD SVG 1.1//EN"
 "http://www.w3.org/Graphics/SVG/1.1/DTD/svg11.dtd">
<!-- Generated by graphviz version 2.43.0 (0)
 -->
<!-- Title: %3 Pages: 1 -->
<svg width="1947pt" height="1052pt"
 viewBox="0.00 0.00 1947.43 1052.00" xmlns="http://www.w3.org/2000/svg" xmlns:xlink="http://www.w3.org/1999/xlink">
<g id="graph0" class="graph" transform="scale(1 1) rotate(0) translate(4 1048)">
<title>%3</title>
<polygon fill="white" stroke="transparent" points="-4,4 -4,-1048 1943.43,-1048 1943.43,4 -4,4"/>
<!-- jb -->
<g id="node1" class="node">
<title>jb</title>
<ellipse fill="none" stroke="black" cx="118" cy="-1026" rx="27" ry="18"/>
<text text-anchor="middle" x="118" y="-1022.3" font-family="Times,serif" font-size="14.00">jb</text>
</g>
<!-- ps -->
<g id="node2" class="node">
<title>ps</title>
<ellipse fill="none" stroke="black" cx="251" cy="-954" rx="27" ry="18"/>
<text text-anchor="middle" x="251" y="-950.3" font-family="Times,serif" font-size="14.00">ps</text>
</g>
<!-- jb&#45;&gt;ps -->
<g id="edge1" class="edge">
<title>jb&#45;&gt;ps</title>
<path fill="none" stroke="black" d="M138.49,-1014.22C160.59,-1002.59 195.98,-983.96 221.16,-970.7"/>
<polygon fill="black" stroke="black" points="223.05,-973.67 230.27,-965.91 219.79,-967.47 223.05,-973.67"/>
</g>
<!-- jt -->
<g id="node13" class="node">
<title>jt</title>
<ellipse fill="none" stroke="black" cx="188" cy="-522" rx="27" ry="18"/>
<text text-anchor="middle" x="188" y="-518.3" font-family="Times,serif" font-size="14.00">jt</text>
</g>
<!-- ps&#45;&gt;jt -->
<g id="edge20" class="edge">
<title>ps&#45;&gt;jt</title>
<path fill="none" stroke="black" d="M229.29,-942.99C190.66,-923.52 114,-876.6 114,-811 114,-811 114,-811 114,-665 114,-618.59 145.47,-572.33 167.36,-545.75"/>
<polygon fill="black" stroke="black" points="170.27,-547.73 174.08,-537.84 164.94,-543.2 170.27,-547.73"/>
</g>
<!-- pq -->
<g id="node14" class="node">
<title>pq</title>
<ellipse fill="none" stroke="black" cx="255" cy="-450" rx="27" ry="18"/>
<text text-anchor="middle" x="255" y="-446.3" font-family="Times,serif" font-size="14.00">pq</text>
</g>
<!-- ps&#45;&gt;pq -->
<g id="edge24" class="edge">
<title>ps&#45;&gt;pq</title>
<path fill="none" stroke="black" d="M262.2,-937.51C285.69,-903.43 338,-818.61 338,-739 338,-739 338,-739 338,-593 338,-544.87 302.02,-498.56 277.43,-472.53"/>
<polygon fill="black" stroke="black" points="279.71,-469.85 270.22,-465.13 274.69,-474.74 279.71,-469.85"/>
</g>
<!-- xc -->
<g id="node26" class="node">
<title>xc</title>
<ellipse fill="none" stroke="black" cx="911" cy="-810" rx="27" ry="18"/>
<text text-anchor="middle" x="911" y="-806.3" font-family="Times,serif" font-size="14.00">xc</text>
</g>
<!-- ps&#45;&gt;xc -->
<g id="edge18" class="edge">
<title>ps&#45;&gt;xc</title>
<path fill="none" stroke="black" d="M278.05,-951.53C368.5,-946.39 659.72,-928.03 749,-900 800.27,-883.9 853.79,-850.78 884.67,-829.79"/>
<polygon fill="black" stroke="black" points="886.89,-832.52 893.13,-823.96 882.91,-826.76 886.89,-832.52"/>
</g>
<!-- mq -->
<g id="node27" class="node">
<title>mq</title>
<ellipse fill="none" stroke="black" cx="207" cy="-666" rx="27" ry="18"/>
<text text-anchor="middle" x="207" y="-662.3" font-family="Times,serif" font-size="14.00">mq</text>
</g>
<!-- ps&#45;&gt;mq -->
<g id="edge19" class="edge">
<title>ps&#45;&gt;mq</title>
<path fill="none" stroke="black" d="M246.26,-936.05C237.04,-902.18 216.89,-823.56 209,-756 206.59,-735.41 206.16,-711.95 206.29,-694.3"/>
<polygon fill="black" stroke="black" points="209.8,-694.18 206.44,-684.13 202.8,-694.08 209.8,-694.18"/>
</g>
<!-- zs -->
<g id="node28" class="node">
<title>zs</title>
<ellipse fill="none" stroke="black" cx="255" cy="-378" rx="27" ry="18"/>
<text text-anchor="middle" x="255" y="-374.3" font-family="Times,serif" font-size="14.00">zs</text>
</g>
<!-- ps&#45;&gt;zs -->
<g id="edge21" class="edge">
<title>ps&#45;&gt;zs</title>
<path fill="none" stroke="black" d="M225.83,-946.85C199.49,-939.38 158.13,-924.62 130,-900 95.19,-869.52 76,-857.27 76,-811 76,-811 76,-811 76,-521 76,-447.93 168.69,-406.49 220.67,-389"/>
<polygon fill="black" stroke="black" points="222.05,-392.23 230.49,-385.81 219.89,-385.57 222.05,-392.23"/>
</g>
<!-- sr -->
<g id="node29" class="node">
<title>sr</title>
<ellipse fill="none" stroke="black" cx="418" cy="-882" rx="27" ry="18"/>
<text text-anchor="middle" x="418" y="-878.3" font-family="Times,serif" font-size="14.00">sr</text>
</g>
<!-- ps&#45;&gt;sr -->
<g id="edge22" class="edge">
<title>ps&#45;&gt;sr</title>
<path fill="none" stroke="black" d="M271.69,-942.22C300.18,-929.34 351.34,-907.87 385.07,-894.63"/>
<polygon fill="black" stroke="black" points="386.46,-897.85 394.52,-890.97 383.93,-891.32 386.46,-897.85"/>
</g>
<!-- nt -->
<g id="node30" class="node">
<title>nt</title>
<ellipse fill="none" stroke="black" cx="188" cy="-594" rx="27" ry="18"/>
<text text-anchor="middle" x="188" y="-590.3" font-family="Times,serif" font-size="14.00">nt</text>
</g>
<!-- ps&#45;&gt;nt -->
<g id="edge23" class="edge">
<title>ps&#45;&gt;nt</title>
<path fill="none" stroke="black" d="M233.3,-939.86C204.82,-917.06 152,-867.2 152,-811 152,-811 152,-811 152,-737 152,-695.55 166.59,-649.32 177.2,-621.2"/>
<polygon fill="black" stroke="black" points="180.53,-622.29 180.89,-611.7 174,-619.75 180.53,-622.29"/>
</g>
<!-- cm -->
<g id="node3" class="node">
<title>cm</title>
<ellipse fill="none" stroke="black" cx="283" cy="-810" rx="27" ry="18"/>
<text text-anchor="middle" x="283" y="-806.3" font-family="Times,serif" font-size="14.00">cm</text>
</g>
<!-- cm&#45;&gt;ps -->
<g id="edge2" class="edge">
<title>cm&#45;&gt;ps</title>
<path fill="none" stroke="black" d="M279.21,-827.82C273.73,-852.15 263.53,-897.4 257.01,-926.31"/>
<polygon fill="black" stroke="black" points="253.58,-925.63 254.8,-936.15 260.41,-927.17 253.58,-925.63"/>
</g>
<!-- tm -->
<g id="node4" class="node">
<title>tm</title>
<ellipse fill="none" stroke="black" cx="245" cy="-738" rx="27" ry="18"/>
<text text-anchor="middle" x="245" y="-734.3" font-family="Times,serif" font-size="14.00">tm</text>
</g>
<!-- cm&#45;&gt;tm -->
<g id="edge3" class="edge">
<title>cm&#45;&gt;tm</title>
<path fill="none" stroke="black" d="M274.19,-792.76C269.58,-784.28 263.84,-773.71 258.68,-764.2"/>
<polygon fill="black" stroke="black" points="261.61,-762.27 253.77,-755.15 255.46,-765.61 261.61,-762.27"/>
</g>
<!-- tm&#45;&gt;ps -->
<g id="edge83" class="edge">
<title>tm&#45;&gt;ps</title>
<path fill="none" stroke="black" d="M245.34,-756.06C245.7,-773.98 246.32,-802.97 247,-828 247.91,-861.46 249.18,-899.96 250.04,-925.29"/>
<polygon fill="black" stroke="black" points="246.55,-925.74 250.39,-935.61 253.55,-925.5 246.55,-925.74"/>
</g>
<!-- tm&#45;&gt;mq -->
<g id="edge84" class="edge">
<title>tm&#45;&gt;mq</title>
<path fill="none" stroke="black" d="M236.19,-720.76C231.58,-712.28 225.84,-701.71 220.68,-692.2"/>
<polygon fill="black" stroke="black" points="223.61,-690.27 215.77,-683.15 217.46,-693.61 223.61,-690.27"/>
</g>
<!-- sl -->
<g id="node5" class="node">
<title>sl</title>
<ellipse fill="none" stroke="black" cx="783" cy="-738" rx="27" ry="18"/>
<text text-anchor="middle" x="783" y="-734.3" font-family="Times,serif" font-size="14.00">sl</text>
</g>
<!-- ml -->
<g id="node6" class="node">
<title>ml</title>
<ellipse fill="none" stroke="black" cx="707" cy="-594" rx="27" ry="18"/>
<text text-anchor="middle" x="707" y="-590.3" font-family="Times,serif" font-size="14.00">ml</text>
</g>
<!-- sl&#45;&gt;ml -->
<g id="edge4" class="edge">
<title>sl&#45;&gt;ml</title>
<path fill="none" stroke="black" d="M776.31,-720.56C768.73,-702.41 755.65,-672.53 742,-648 736.61,-638.32 730.06,-628.07 724.09,-619.19"/>
<polygon fill="black" stroke="black" points="726.91,-617.12 718.38,-610.84 721.14,-621.07 726.91,-617.12"/>
</g>
<!-- cp -->
<g id="node7" class="node">
<title>cp</title>
<ellipse fill="none" stroke="black" cx="821" cy="-666" rx="27" ry="18"/>
<text text-anchor="middle" x="821" y="-662.3" font-family="Times,serif" font-size="14.00">cp</text>
</g>
<!-- sl&#45;&gt;cp -->
<g id="edge5" class="edge">
<title>sl&#45;&gt;cp</title>
<path fill="none" stroke="black" d="M791.81,-720.76C796.42,-712.28 802.16,-701.71 807.32,-692.2"/>
<polygon fill="black" stroke="black" points="810.54,-693.61 812.23,-683.15 804.39,-690.27 810.54,-693.61"/>
</g>
<!-- qv -->
<g id="node15" class="node">
<title>qv</title>
<ellipse fill="none" stroke="black" cx="821" cy="-522" rx="27" ry="18"/>
<text text-anchor="middle" x="821" y="-518.3" font-family="Times,serif" font-size="14.00">qv</text>
</g>
<!-- ml&#45;&gt;qv -->
<g id="edge40" class="edge">
<title>ml&#45;&gt;qv</title>
<path fill="none" stroke="black" d="M726.34,-581.13C744.6,-569.91 772.19,-552.97 792.89,-540.26"/>
<polygon fill="black" stroke="black" points="794.88,-543.15 801.57,-534.93 791.21,-537.18 794.88,-543.15"/>
</g>
<!-- bp -->
<g id="node40" class="node">
<title>bp</title>
<ellipse fill="none" stroke="black" cx="893" cy="-522" rx="27" ry="18"/>
<text text-anchor="middle" x="893" y="-518.3" font-family="Times,serif" font-size="14.00">bp</text>
</g>
<!-- ml&#45;&gt;bp -->
<g id="edge38" class="edge">
<title>ml&#45;&gt;bp</title>
<path fill="none" stroke="black" d="M730.92,-585.38C760.76,-575.69 813.2,-558.03 857,-540 858.82,-539.25 860.68,-538.46 862.56,-537.64"/>
<polygon fill="black" stroke="black" points="864.18,-540.75 871.84,-533.43 861.29,-534.37 864.18,-540.75"/>
</g>
<!-- gd -->
<g id="node41" class="node">
<title>gd</title>
<ellipse fill="none" stroke="black" cx="713" cy="-882" rx="27" ry="18"/>
<text text-anchor="middle" x="713" y="-878.3" font-family="Times,serif" font-size="14.00">gd</text>
</g>
<!-- ml&#45;&gt;gd -->
<g id="edge39" class="edge">
<title>ml&#45;&gt;gd</title>
<path fill="none" stroke="black" d="M711.47,-611.97C715.29,-650.42 714.61,-747.17 718,-828 718.36,-836.56 718.98,-845.88 719.21,-854.28"/>
<polygon fill="black" stroke="black" points="715.71,-854.31 719.22,-864.31 722.71,-854.3 715.71,-854.31"/>
</g>
<!-- kq -->
<g id="node42" class="node">
<title>kq</title>
<ellipse fill="none" stroke="black" cx="604" cy="-234" rx="27" ry="18"/>
<text text-anchor="middle" x="604" y="-230.3" font-family="Times,serif" font-size="14.00">kq</text>
</g>
<!-- ml&#45;&gt;kq -->
<g id="edge41" class="edge">
<title>ml&#45;&gt;kq</title>
<path fill="none" stroke="black" d="M711.25,-575.77C717.87,-545.97 728.65,-483.09 716,-432 698.91,-363 650.15,-293.26 622.94,-258.2"/>
<polygon fill="black" stroke="black" points="625.46,-255.74 616.52,-250.06 619.96,-260.08 625.46,-255.74"/>
</g>
<!-- cp&#45;&gt;ml -->
<g id="edge91" class="edge">
<title>cp&#45;&gt;ml</title>
<path fill="none" stroke="black" d="M801.66,-653.13C783.4,-641.91 755.81,-624.97 735.11,-612.26"/>
<polygon fill="black" stroke="black" points="736.79,-609.18 726.43,-606.93 733.12,-615.15 736.79,-609.18"/>
</g>
<!-- cp&#45;&gt;qv -->
<g id="edge90" class="edge">
<title>cp&#45;&gt;qv</title>
<path fill="none" stroke="black" d="M821,-647.87C821,-623.67 821,-579.21 821,-550.39"/>
<polygon fill="black" stroke="black" points="824.5,-550.19 821,-540.19 817.5,-550.19 824.5,-550.19"/>
</g>
<!-- qr -->
<g id="node8" class="node">
<title>qr</title>
<ellipse fill="none" stroke="black" cx="558" cy="-18" rx="27" ry="18"/>
<text text-anchor="middle" x="558" y="-14.3" font-family="Times,serif" font-size="14.00">qr</text>
</g>
<!-- qr&#45;&gt;ml -->
<g id="edge6" class="edge">
<title>qr&#45;&gt;ml</title>
<path fill="none" stroke="black" d="M548.94,-35.04C535.28,-60.77 511,-113.22 511,-161 511,-451 511,-451 511,-451 511,-497.04 528.62,-510.54 564,-540 595.08,-565.88 639.97,-579.74 671.14,-586.72"/>
<polygon fill="black" stroke="black" points="670.63,-590.19 681.14,-588.83 672.08,-583.34 670.63,-590.19"/>
</g>
<!-- hf -->
<g id="node9" class="node">
<title>hf</title>
<ellipse fill="none" stroke="black" cx="1660" cy="-882" rx="27" ry="18"/>
<text text-anchor="middle" x="1660" y="-878.3" font-family="Times,serif" font-size="14.00">hf</text>
</g>
<!-- kh -->
<g id="node10" class="node">
<title>kh</title>
<ellipse fill="none" stroke="black" cx="1660" cy="-810" rx="27" ry="18"/>
<text text-anchor="middle" x="1660" y="-806.3" font-family="Times,serif" font-size="14.00">kh</text>
</g>
<!-- hf&#45;&gt;kh -->
<g id="edge7" class="edge">
<title>hf&#45;&gt;kh</title>
<path fill="none" stroke="black" d="M1654.16,-864.41C1653.3,-856.51 1653.05,-846.85 1653.41,-837.94"/>
<polygon fill="black" stroke="black" points="1656.9,-838.18 1654.12,-827.96 1649.92,-837.68 1656.9,-838.18"/>
</g>
<!-- jg -->
<g id="node11" class="node">
<title>jg</title>
<ellipse fill="none" stroke="black" cx="1882" cy="-738" rx="27" ry="18"/>
<text text-anchor="middle" x="1882" y="-734.3" font-family="Times,serif" font-size="14.00">jg</text>
</g>
<!-- hf&#45;&gt;jg -->
<g id="edge8" class="edge">
<title>hf&#45;&gt;jg</title>
<path fill="none" stroke="black" d="M1678.93,-868.89C1718.25,-843.74 1808.91,-785.75 1854.61,-756.52"/>
<polygon fill="black" stroke="black" points="1856.58,-759.41 1863.12,-751.08 1852.81,-753.52 1856.58,-759.41"/>
</g>
<!-- kh&#45;&gt;hf -->
<g id="edge58" class="edge">
<title>kh&#45;&gt;hf</title>
<path fill="none" stroke="black" d="M1665.88,-827.96C1666.71,-835.83 1666.95,-845.37 1666.58,-854.19"/>
<polygon fill="black" stroke="black" points="1663.07,-854.18 1665.84,-864.41 1670.06,-854.69 1663.07,-854.18"/>
</g>
<!-- kh&#45;&gt;jg -->
<g id="edge54" class="edge">
<title>kh&#45;&gt;jg</title>
<path fill="none" stroke="black" d="M1684.86,-802.63C1720,-793.43 1786.03,-775.38 1841,-756 1844.12,-754.9 1847.36,-753.69 1850.57,-752.43"/>
<polygon fill="black" stroke="black" points="1852.07,-755.6 1860.04,-748.62 1849.46,-749.11 1852.07,-755.6"/>
</g>
<!-- kk -->
<g id="node12" class="node">
<title>kk</title>
<ellipse fill="none" stroke="black" cx="1734" cy="-666" rx="27" ry="18"/>
<text text-anchor="middle" x="1734" y="-662.3" font-family="Times,serif" font-size="14.00">kk</text>
</g>
<!-- kh&#45;&gt;kk -->
<g id="edge60" class="edge">
<title>kh&#45;&gt;kk</title>
<path fill="none" stroke="black" d="M1670.65,-793.07C1677.39,-782.71 1686.11,-768.79 1693,-756 1704.17,-735.28 1715.24,-710.95 1723.06,-692.98"/>
<polygon fill="black" stroke="black" points="1726.31,-694.27 1727.05,-683.71 1719.88,-691.51 1726.31,-694.27"/>
</g>
<!-- md -->
<g id="node43" class="node">
<title>md</title>
<ellipse fill="none" stroke="black" cx="1601" cy="-378" rx="27" ry="18"/>
<text text-anchor="middle" x="1601" y="-374.3" font-family="Times,serif" font-size="14.00">md</text>
</g>
<!-- kh&#45;&gt;md -->
<g id="edge56" class="edge">
<title>kh&#45;&gt;md</title>
<path fill="none" stroke="black" d="M1643.02,-795.7C1615.69,-772.67 1565,-722.47 1565,-667 1565,-667 1565,-667 1565,-521 1565,-479.55 1579.59,-433.32 1590.2,-405.2"/>
<polygon fill="black" stroke="black" points="1593.53,-406.29 1593.89,-395.7 1587,-403.75 1593.53,-406.29"/>
</g>
<!-- th -->
<g id="node45" class="node">
<title>th</title>
<ellipse fill="none" stroke="black" cx="1038" cy="-666" rx="27" ry="18"/>
<text text-anchor="middle" x="1038" y="-662.3" font-family="Times,serif" font-size="14.00">th</text>
</g>
<!-- kh&#45;&gt;th -->
<g id="edge57" class="edge">
<title>kh&#45;&gt;th</title>
<path fill="none" stroke="black" d="M1632.93,-807.9C1526.23,-803.35 1138.28,-784.97 1092,-756 1069.22,-741.74 1054.69,-714.03 1046.51,-693.3"/>
<polygon fill="black" stroke="black" points="1049.74,-691.94 1042.99,-683.77 1043.17,-694.36 1049.74,-691.94"/>
</g>
<!-- dm -->
<g id="node48" class="node">
<title>dm</title>
<ellipse fill="none" stroke="black" cx="1696" cy="-594" rx="27" ry="18"/>
<text text-anchor="middle" x="1696" y="-590.3" font-family="Times,serif" font-size="14.00">dm</text>
</g>
<!-- kh&#45;&gt;dm -->
<g id="edge59" class="edge">
<title>kh&#45;&gt;dm</title>
<path fill="none" stroke="black" d="M1662.89,-791.85C1669.13,-754.74 1683.93,-666.75 1691.45,-622.05"/>
<polygon fill="black" stroke="black" points="1694.94,-622.38 1693.15,-611.94 1688.04,-621.22 1694.94,-622.38"/>
</g>
<!-- qx -->
<g id="node52" class="node">
<title>qx</title>
<ellipse fill="none" stroke="black" cx="1658" cy="-522" rx="27" ry="18"/>
<text text-anchor="middle" x="1658" y="-518.3" font-family="Times,serif" font-size="14.00">qx</text>
</g>
<!-- kh&#45;&gt;qx -->
<g id="edge55" class="edge">
<title>kh&#45;&gt;qx</title>
<path fill="none" stroke="black" d="M1659.88,-791.97C1659.55,-744.29 1658.6,-609.18 1658.19,-550.63"/>
<polygon fill="black" stroke="black" points="1661.69,-550.28 1658.12,-540.31 1654.69,-550.33 1661.69,-550.28"/>
</g>
<!-- jg&#45;&gt;kk -->
<g id="edge9" class="edge">
<title>jg&#45;&gt;kk</title>
<path fill="none" stroke="black" d="M1860.48,-726.82C1835.27,-714.9 1793.32,-695.06 1764.7,-681.52"/>
<polygon fill="black" stroke="black" points="1766.08,-678.3 1755.55,-677.19 1763.09,-684.63 1766.08,-678.3"/>
</g>
<!-- kk&#45;&gt;dm -->
<g id="edge50" class="edge">
<title>kk&#45;&gt;dm</title>
<path fill="none" stroke="black" d="M1725.19,-648.76C1720.58,-640.28 1714.84,-629.71 1709.68,-620.2"/>
<polygon fill="black" stroke="black" points="1712.61,-618.27 1704.77,-611.15 1706.46,-621.61 1712.61,-618.27"/>
</g>
<!-- jt&#45;&gt;pq -->
<g id="edge10" class="edge">
<title>jt&#45;&gt;pq</title>
<path fill="none" stroke="black" d="M201.88,-506.5C211.14,-496.83 223.47,-483.94 233.93,-473.02"/>
<polygon fill="black" stroke="black" points="236.75,-475.13 241.14,-465.49 231.69,-470.29 236.75,-475.13"/>
</g>
<!-- pq&#45;&gt;zs -->
<g id="edge99" class="edge">
<title>pq&#45;&gt;zs</title>
<path fill="none" stroke="black" d="M255,-431.7C255,-423.98 255,-414.71 255,-406.11"/>
<polygon fill="black" stroke="black" points="258.5,-406.1 255,-396.1 251.5,-406.1 258.5,-406.1"/>
</g>
<!-- kv -->
<g id="node16" class="node">
<title>kv</title>
<ellipse fill="none" stroke="black" cx="680" cy="-450" rx="27" ry="18"/>
<text text-anchor="middle" x="680" y="-446.3" font-family="Times,serif" font-size="14.00">kv</text>
</g>
<!-- qv&#45;&gt;kv -->
<g id="edge11" class="edge">
<title>qv&#45;&gt;kv</title>
<path fill="none" stroke="black" d="M799.89,-510.52C776.11,-498.72 737.27,-479.43 710.27,-466.03"/>
<polygon fill="black" stroke="black" points="711.77,-462.86 701.25,-461.55 708.65,-469.13 711.77,-462.86"/>
</g>
<!-- kv&#45;&gt;ml -->
<g id="edge86" class="edge">
<title>kv&#45;&gt;ml</title>
<path fill="none" stroke="black" d="M683.27,-468.19C687.88,-492.42 696.33,-536.89 701.81,-565.68"/>
<polygon fill="black" stroke="black" points="698.44,-566.7 703.74,-575.87 705.31,-565.39 698.44,-566.7"/>
</g>
<!-- jn -->
<g id="node49" class="node">
<title>jn</title>
<ellipse fill="none" stroke="black" cx="642" cy="-378" rx="27" ry="18"/>
<text text-anchor="middle" x="642" y="-374.3" font-family="Times,serif" font-size="14.00">jn</text>
</g>
<!-- kv&#45;&gt;jn -->
<g id="edge85" class="edge">
<title>kv&#45;&gt;jn</title>
<path fill="none" stroke="black" d="M671.19,-432.76C666.58,-424.28 660.84,-413.71 655.68,-404.2"/>
<polygon fill="black" stroke="black" points="658.61,-402.27 650.77,-395.15 652.46,-405.61 658.61,-402.27"/>
</g>
<!-- rj -->
<g id="node17" class="node">
<title>rj</title>
<ellipse fill="none" stroke="black" cx="1799" cy="-90" rx="27" ry="18"/>
<text text-anchor="middle" x="1799" y="-86.3" font-family="Times,serif" font-size="14.00">rj</text>
</g>
<!-- rj&#45;&gt;kh -->
<g id="edge13" class="edge">
<title>rj&#45;&gt;kh</title>
<path fill="none" stroke="black" d="M1772.03,-91.08C1696.61,-92.85 1489,-108.98 1489,-233 1489,-667 1489,-667 1489,-667 1489,-713.04 1507.63,-725.37 1542,-756 1565.98,-777.37 1599.99,-791.4 1625.35,-799.63"/>
<polygon fill="black" stroke="black" points="1624.35,-802.99 1634.94,-802.6 1626.42,-796.3 1624.35,-802.99"/>
</g>
<!-- mm -->
<g id="node18" class="node">
<title>mm</title>
<ellipse fill="none" stroke="black" cx="1868" cy="-18" rx="28.7" ry="18"/>
<text text-anchor="middle" x="1868" y="-14.3" font-family="Times,serif" font-size="14.00">mm</text>
</g>
<!-- rj&#45;&gt;mm -->
<g id="edge12" class="edge">
<title>rj&#45;&gt;mm</title>
<path fill="none" stroke="black" d="M1813.3,-74.5C1822.79,-64.86 1835.43,-52.04 1846.18,-41.14"/>
<polygon fill="black" stroke="black" points="1848.72,-43.55 1853.25,-33.97 1843.73,-38.63 1848.72,-43.55"/>
</g>
<!-- mm&#45;&gt;kh -->
<g id="edge45" class="edge">
<title>mm&#45;&gt;kh</title>
<path fill="none" stroke="black" d="M1881.3,-34.41C1901.35,-59.27 1937,-110.57 1937,-161 1937,-667 1937,-667 1937,-667 1937,-707.45 1946.71,-727.51 1918,-756 1887.25,-786.51 1760.71,-800.89 1697,-806.3"/>
<polygon fill="black" stroke="black" points="1696.66,-802.82 1686.98,-807.12 1697.23,-809.8 1696.66,-802.82"/>
</g>
<!-- kf -->
<g id="node19" class="node">
<title>kf</title>
<ellipse fill="none" stroke="black" cx="1166" cy="-810" rx="27" ry="18"/>
<text text-anchor="middle" x="1166" y="-806.3" font-family="Times,serif" font-size="14.00">kf</text>
</g>
<!-- xt -->
<g id="node20" class="node">
<title>xt</title>
<ellipse fill="none" stroke="black" cx="1128" cy="-738" rx="27" ry="18"/>
<text text-anchor="middle" x="1128" y="-734.3" font-family="Times,serif" font-size="14.00">xt</text>
</g>
<!-- kf&#45;&gt;xt -->
<g id="edge14" class="edge">
<title>kf&#45;&gt;xt</title>
<path fill="none" stroke="black" d="M1157.19,-792.76C1152.58,-784.28 1146.84,-773.71 1141.68,-764.2"/>
<polygon fill="black" stroke="black" points="1144.61,-762.27 1136.77,-755.15 1138.46,-765.61 1144.61,-762.27"/>
</g>
<!-- mk -->
<g id="node23" class="node">
<title>mk</title>
<ellipse fill="none" stroke="black" cx="1230" cy="-666" rx="27" ry="18"/>
<text text-anchor="middle" x="1230" y="-662.3" font-family="Times,serif" font-size="14.00">mk</text>
</g>
<!-- xt&#45;&gt;mk -->
<g id="edge34" class="edge">
<title>xt&#45;&gt;mk</title>
<path fill="none" stroke="black" d="M1146.24,-724.49C1162.19,-713.54 1185.57,-697.49 1203.57,-685.14"/>
<polygon fill="black" stroke="black" points="1205.66,-687.95 1211.92,-679.41 1201.7,-682.18 1205.66,-687.95"/>
</g>
<!-- dq -->
<g id="node24" class="node">
<title>dq</title>
<ellipse fill="none" stroke="black" cx="1113" cy="-594" rx="27" ry="18"/>
<text text-anchor="middle" x="1113" y="-590.3" font-family="Times,serif" font-size="14.00">dq</text>
</g>
<!-- xt&#45;&gt;dq -->
<g id="edge33" class="edge">
<title>xt&#45;&gt;dq</title>
<path fill="none" stroke="black" d="M1126.19,-719.87C1123.63,-695.67 1118.94,-651.21 1115.89,-622.39"/>
<polygon fill="black" stroke="black" points="1119.35,-621.77 1114.82,-612.19 1112.39,-622.5 1119.35,-621.77"/>
</g>
<!-- kx -->
<g id="node21" class="node">
<title>kx</title>
<ellipse fill="none" stroke="black" cx="1339" cy="-234" rx="27" ry="18"/>
<text text-anchor="middle" x="1339" y="-230.3" font-family="Times,serif" font-size="14.00">kx</text>
</g>
<!-- vk -->
<g id="node22" class="node">
<title>vk</title>
<ellipse fill="none" stroke="black" cx="1273" cy="-162" rx="27" ry="18"/>
<text text-anchor="middle" x="1273" y="-158.3" font-family="Times,serif" font-size="14.00">vk</text>
</g>
<!-- kx&#45;&gt;vk -->
<g id="edge15" class="edge">
<title>kx&#45;&gt;vk</title>
<path fill="none" stroke="black" d="M1325,-218.15C1315.99,-208.6 1304.11,-195.99 1293.98,-185.25"/>
<polygon fill="black" stroke="black" points="1296.38,-182.7 1286.98,-177.82 1291.29,-187.5 1296.38,-182.7"/>
</g>
<!-- kx&#45;&gt;mk -->
<g id="edge16" class="edge">
<title>kx&#45;&gt;mk</title>
<path fill="none" stroke="black" d="M1352.92,-249.84C1374.35,-274.32 1413,-325.57 1413,-377 1413,-523 1413,-523 1413,-523 1413,-597.42 1317.36,-638.46 1264.36,-655.48"/>
<polygon fill="black" stroke="black" points="1263.2,-652.17 1254.68,-658.47 1265.27,-658.86 1263.2,-652.17"/>
</g>
<!-- vk&#45;&gt;mk -->
<g id="edge43" class="edge">
<title>vk&#45;&gt;mk</title>
<path fill="none" stroke="black" d="M1257.59,-177.09C1233.34,-200.9 1189,-251.72 1189,-305 1189,-451 1189,-451 1189,-451 1189,-519.58 1209.56,-598.36 1221.56,-638.49"/>
<polygon fill="black" stroke="black" points="1218.29,-639.74 1224.56,-648.29 1224.98,-637.7 1218.29,-639.74"/>
</g>
<!-- vl -->
<g id="node44" class="node">
<title>vl</title>
<ellipse fill="none" stroke="black" cx="1273" cy="-90" rx="27" ry="18"/>
<text text-anchor="middle" x="1273" y="-86.3" font-family="Times,serif" font-size="14.00">vl</text>
</g>
<!-- vk&#45;&gt;vl -->
<g id="edge44" class="edge">
<title>vk&#45;&gt;vl</title>
<path fill="none" stroke="black" d="M1273,-143.7C1273,-135.98 1273,-126.71 1273,-118.11"/>
<polygon fill="black" stroke="black" points="1276.5,-118.1 1273,-108.1 1269.5,-118.1 1276.5,-118.1"/>
</g>
<!-- mk&#45;&gt;kf -->
<g id="edge66" class="edge">
<title>mk&#45;&gt;kf</title>
<path fill="none" stroke="black" d="M1222.58,-683.46C1211.58,-707.88 1190.83,-753.91 1177.75,-782.94"/>
<polygon fill="black" stroke="black" points="1174.39,-781.88 1173.47,-792.43 1180.77,-784.75 1174.39,-781.88"/>
</g>
<!-- mk&#45;&gt;dq -->
<g id="edge70" class="edge">
<title>mk&#45;&gt;dq</title>
<path fill="none" stroke="black" d="M1210.42,-653.28C1191.52,-641.98 1162.71,-624.74 1141.31,-611.94"/>
<polygon fill="black" stroke="black" points="1143.03,-608.89 1132.65,-606.75 1139.43,-614.89 1143.03,-608.89"/>
</g>
<!-- qn -->
<g id="node25" class="node">
<title>qn</title>
<ellipse fill="none" stroke="black" cx="1244" cy="-522" rx="27" ry="18"/>
<text text-anchor="middle" x="1244" y="-518.3" font-family="Times,serif" font-size="14.00">qn</text>
</g>
<!-- mk&#45;&gt;qn -->
<g id="edge67" class="edge">
<title>mk&#45;&gt;qn</title>
<path fill="none" stroke="black" d="M1231.69,-647.87C1234.07,-623.67 1238.46,-579.21 1241.3,-550.39"/>
<polygon fill="black" stroke="black" points="1244.81,-550.48 1242.31,-540.19 1237.84,-549.8 1244.81,-550.48"/>
</g>
<!-- nh -->
<g id="node34" class="node">
<title>nh</title>
<ellipse fill="none" stroke="black" cx="1320" cy="-378" rx="27" ry="18"/>
<text text-anchor="middle" x="1320" y="-374.3" font-family="Times,serif" font-size="14.00">nh</text>
</g>
<!-- mk&#45;&gt;nh -->
<g id="edge68" class="edge">
<title>mk&#45;&gt;nh</title>
<path fill="none" stroke="black" d="M1245.18,-651.01C1255.21,-641.01 1267.95,-626.76 1276,-612 1307.92,-553.47 1307.83,-533.89 1318,-468 1321.16,-447.51 1321.56,-424.05 1321.22,-406.37"/>
<polygon fill="black" stroke="black" points="1324.71,-406.08 1320.93,-396.18 1317.72,-406.27 1324.71,-406.08"/>
</g>
<!-- mg -->
<g id="node37" class="node">
<title>mg</title>
<ellipse fill="none" stroke="black" cx="1198" cy="-882" rx="27" ry="18"/>
<text text-anchor="middle" x="1198" y="-878.3" font-family="Times,serif" font-size="14.00">mg</text>
</g>
<!-- mk&#45;&gt;mg -->
<g id="edge71" class="edge">
<title>mk&#45;&gt;mg</title>
<path fill="none" stroke="black" d="M1231.32,-684.01C1229.33,-721.16 1216.34,-809.76 1206.62,-854.38"/>
<polygon fill="black" stroke="black" points="1203.19,-853.68 1204.35,-864.21 1210.01,-855.25 1203.19,-853.68"/>
</g>
<!-- bm -->
<g id="node39" class="node">
<title>bm</title>
<ellipse fill="none" stroke="black" cx="1339" cy="-306" rx="27" ry="18"/>
<text text-anchor="middle" x="1339" y="-302.3" font-family="Times,serif" font-size="14.00">bm</text>
</g>
<!-- mk&#45;&gt;bm -->
<g id="edge72" class="edge">
<title>mk&#45;&gt;bm</title>
<path fill="none" stroke="black" d="M1252.34,-655.64C1293.01,-636.94 1375,-590.83 1375,-523 1375,-523 1375,-523 1375,-449 1375,-407.55 1360.41,-361.32 1349.8,-333.2"/>
<polygon fill="black" stroke="black" points="1353,-331.75 1346.11,-323.7 1346.47,-334.29 1353,-331.75"/>
</g>
<!-- pd -->
<g id="node51" class="node">
<title>pd</title>
<ellipse fill="none" stroke="black" cx="1041" cy="-594" rx="27" ry="18"/>
<text text-anchor="middle" x="1041" y="-590.3" font-family="Times,serif" font-size="14.00">pd</text>
</g>
<!-- mk&#45;&gt;pd -->
<g id="edge69" class="edge">
<title>mk&#45;&gt;pd</title>
<path fill="none" stroke="black" d="M1205.85,-657.52C1175.45,-647.91 1121.77,-630.26 1077,-612 1075.18,-611.26 1073.31,-610.47 1071.44,-609.65"/>
<polygon fill="black" stroke="black" points="1072.71,-606.38 1062.15,-605.45 1069.82,-612.76 1072.71,-606.38"/>
</g>
<!-- dq&#45;&gt;qn -->
<g id="edge17" class="edge">
<title>dq&#45;&gt;qn</title>
<path fill="none" stroke="black" d="M1133.47,-582.06C1155.29,-570.4 1190.04,-551.83 1214.75,-538.63"/>
<polygon fill="black" stroke="black" points="1216.5,-541.66 1223.67,-533.86 1213.21,-535.49 1216.5,-541.66"/>
</g>
<!-- rr -->
<g id="node33" class="node">
<title>rr</title>
<ellipse fill="none" stroke="black" cx="1282" cy="-450" rx="27" ry="18"/>
<text text-anchor="middle" x="1282" y="-446.3" font-family="Times,serif" font-size="14.00">rr</text>
</g>
<!-- qn&#45;&gt;rr -->
<g id="edge73" class="edge">
<title>qn&#45;&gt;rr</title>
<path fill="none" stroke="black" d="M1252.81,-504.76C1257.42,-496.28 1263.16,-485.71 1268.32,-476.2"/>
<polygon fill="black" stroke="black" points="1271.54,-477.61 1273.23,-467.15 1265.39,-474.27 1271.54,-477.61"/>
</g>
<!-- zh -->
<g id="node38" class="node">
<title>zh</title>
<ellipse fill="none" stroke="black" cx="967" cy="-450" rx="27" ry="18"/>
<text text-anchor="middle" x="967" y="-446.3" font-family="Times,serif" font-size="14.00">zh</text>
</g>
<!-- xc&#45;&gt;zh -->
<g id="edge35" class="edge">
<title>xc&#45;&gt;zh</title>
<path fill="none" stroke="black" d="M918.31,-792.32C929.09,-766.15 948,-713.62 948,-667 948,-667 948,-667 948,-593 948,-552.64 955.63,-506.39 961.22,-477.94"/>
<polygon fill="black" stroke="black" points="964.69,-478.45 963.25,-467.95 957.83,-477.06 964.69,-478.45"/>
</g>
<!-- mq&#45;&gt;nt -->
<g id="edge36" class="edge">
<title>mq&#45;&gt;nt</title>
<path fill="none" stroke="black" d="M202.4,-648.05C200.25,-640.14 197.65,-630.54 195.24,-621.69"/>
<polygon fill="black" stroke="black" points="198.55,-620.52 192.56,-611.79 191.8,-622.36 198.55,-620.52"/>
</g>
<!-- kc -->
<g id="node47" class="node">
<title>kc</title>
<ellipse fill="none" stroke="black" cx="282" cy="-306" rx="27" ry="18"/>
<text text-anchor="middle" x="282" y="-302.3" font-family="Times,serif" font-size="14.00">kc</text>
</g>
<!-- zs&#45;&gt;kc -->
<g id="edge87" class="edge">
<title>zs&#45;&gt;kc</title>
<path fill="none" stroke="black" d="M261.4,-360.41C264.51,-352.34 268.33,-342.43 271.83,-333.35"/>
<polygon fill="black" stroke="black" points="275.13,-334.55 275.46,-323.96 268.6,-332.03 275.13,-334.55"/>
</g>
<!-- sr&#45;&gt;ps -->
<g id="edge102" class="edge">
<title>sr&#45;&gt;ps</title>
<path fill="none" stroke="black" d="M397.3,-893.79C368.85,-906.65 317.83,-928.06 284.1,-941.3"/>
<polygon fill="black" stroke="black" points="282.71,-938.09 274.65,-944.97 285.24,-944.61 282.71,-938.09"/>
</g>
<!-- sr&#45;&gt;cm -->
<g id="edge101" class="edge">
<title>sr&#45;&gt;cm</title>
<path fill="none" stroke="black" d="M397.2,-870.22C374.54,-858.47 338.11,-839.57 312.5,-826.3"/>
<polygon fill="black" stroke="black" points="314.09,-823.18 303.6,-821.68 310.87,-829.39 314.09,-823.18"/>
</g>
<!-- nt&#45;&gt;jt -->
<g id="edge76" class="edge">
<title>nt&#45;&gt;jt</title>
<path fill="none" stroke="black" d="M188,-575.7C188,-567.98 188,-558.71 188,-550.11"/>
<polygon fill="black" stroke="black" points="191.5,-550.1 188,-540.1 184.5,-550.1 191.5,-550.1"/>
</g>
<!-- jk -->
<g id="node31" class="node">
<title>jk</title>
<ellipse fill="none" stroke="black" cx="282" cy="-234" rx="27" ry="18"/>
<text text-anchor="middle" x="282" y="-230.3" font-family="Times,serif" font-size="14.00">jk</text>
</g>
<!-- jk&#45;&gt;ps -->
<g id="edge26" class="edge">
<title>jk&#45;&gt;ps</title>
<path fill="none" stroke="black" d="M306.97,-240.97C358.74,-254.98 473,-295.19 473,-377 473,-811 473,-811 473,-811 473,-851.45 481.95,-870.76 454,-900 431.28,-923.77 339.62,-940.38 287.58,-948.1"/>
<polygon fill="black" stroke="black" points="286.81,-944.67 277.42,-949.57 287.82,-951.6 286.81,-944.67"/>
</g>
<!-- hh -->
<g id="node32" class="node">
<title>hh</title>
<ellipse fill="none" stroke="black" cx="38" cy="-162" rx="27" ry="18"/>
<text text-anchor="middle" x="38" y="-158.3" font-family="Times,serif" font-size="14.00">hh</text>
</g>
<!-- jk&#45;&gt;hh -->
<g id="edge25" class="edge">
<title>jk&#45;&gt;hh</title>
<path fill="none" stroke="black" d="M257.71,-226.03C214.07,-213.51 122.28,-187.18 72.27,-172.83"/>
<polygon fill="black" stroke="black" points="73.13,-169.44 62.55,-170.04 71.2,-176.17 73.13,-169.44"/>
</g>
<!-- hh&#45;&gt;jb -->
<g id="edge82" class="edge">
<title>hh&#45;&gt;jb</title>
<path fill="none" stroke="black" d="M30.49,-179.66C19.42,-205.8 0,-258.3 0,-305 0,-883 0,-883 0,-883 0,-939 54.95,-984.69 89.85,-1008.07"/>
<polygon fill="black" stroke="black" points="87.96,-1011.01 98.25,-1013.53 91.77,-1005.15 87.96,-1011.01"/>
</g>
<!-- hh&#45;&gt;ps -->
<g id="edge81" class="edge">
<title>hh&#45;&gt;ps</title>
<path fill="none" stroke="black" d="M38,-180.05C38,-206.71 38,-259.89 38,-305 38,-811 38,-811 38,-811 38,-856.59 53.65,-871.22 89,-900 125.45,-929.67 179.02,-942.93 214.45,-948.71"/>
<polygon fill="black" stroke="black" points="213.96,-952.18 224.37,-950.22 215.01,-945.26 213.96,-952.18"/>
</g>
<!-- rr&#45;&gt;mk -->
<g id="edge27" class="edge">
<title>rr&#45;&gt;mk</title>
<path fill="none" stroke="black" d="M1283.42,-468.26C1284.48,-486.34 1285.01,-515.47 1280,-540 1272.65,-575.99 1255.48,-614.89 1243.32,-639.57"/>
<polygon fill="black" stroke="black" points="1240.14,-638.1 1238.78,-648.61 1246.4,-641.25 1240.14,-638.1"/>
</g>
<!-- rr&#45;&gt;nh -->
<g id="edge28" class="edge">
<title>rr&#45;&gt;nh</title>
<path fill="none" stroke="black" d="M1290.81,-432.76C1295.42,-424.28 1301.16,-413.71 1306.32,-404.2"/>
<polygon fill="black" stroke="black" points="1309.54,-405.61 1311.23,-395.15 1303.39,-402.27 1309.54,-405.61"/>
</g>
<!-- nh&#45;&gt;bm -->
<g id="edge37" class="edge">
<title>nh&#45;&gt;bm</title>
<path fill="none" stroke="black" d="M1324.6,-360.05C1326.75,-352.14 1329.35,-342.54 1331.76,-333.69"/>
<polygon fill="black" stroke="black" points="1335.2,-334.36 1334.44,-323.79 1328.45,-332.52 1335.2,-334.36"/>
</g>
<!-- hs -->
<g id="node35" class="node">
<title>hs</title>
<ellipse fill="none" stroke="black" cx="1601" cy="-306" rx="27" ry="18"/>
<text text-anchor="middle" x="1601" y="-302.3" font-family="Times,serif" font-size="14.00">hs</text>
</g>
<!-- hs&#45;&gt;kh -->
<g id="edge29" class="edge">
<title>hs&#45;&gt;kh</title>
<path fill="none" stroke="black" d="M1587.08,-321.84C1565.65,-346.32 1527,-397.57 1527,-449 1527,-667 1527,-667 1527,-667 1527,-726.73 1590.45,-771.69 1629.7,-793.79"/>
<polygon fill="black" stroke="black" points="1628.18,-796.95 1638.63,-798.66 1631.53,-790.8 1628.18,-796.95"/>
</g>
<!-- mb -->
<g id="node36" class="node">
<title>mb</title>
<ellipse fill="none" stroke="black" cx="1772" cy="-234" rx="27" ry="18"/>
<text text-anchor="middle" x="1772" y="-230.3" font-family="Times,serif" font-size="14.00">mb</text>
</g>
<!-- hs&#45;&gt;mb -->
<g id="edge30" class="edge">
<title>hs&#45;&gt;mb</title>
<path fill="none" stroke="black" d="M1623.36,-295.85C1653.18,-283.64 1706.18,-261.95 1740.17,-248.03"/>
<polygon fill="black" stroke="black" points="1741.71,-251.18 1749.64,-244.15 1739.06,-244.7 1741.71,-251.18"/>
</g>
<!-- mb&#45;&gt;kh -->
<g id="edge75" class="edge">
<title>mb&#45;&gt;kh</title>
<path fill="none" stroke="black" d="M1775.36,-251.97C1780.31,-278.52 1789,-331.56 1789,-377 1789,-667 1789,-667 1789,-667 1789,-725.49 1728.29,-770.56 1690.17,-793.09"/>
<polygon fill="black" stroke="black" points="1687.95,-790.33 1681.01,-798.33 1691.43,-796.4 1687.95,-790.33"/>
</g>
<!-- qb -->
<g id="node56" class="node">
<title>qb</title>
<ellipse fill="none" stroke="black" cx="1799" cy="-162" rx="27" ry="18"/>
<text text-anchor="middle" x="1799" y="-158.3" font-family="Times,serif" font-size="14.00">qb</text>
</g>
<!-- mb&#45;&gt;qb -->
<g id="edge74" class="edge">
<title>mb&#45;&gt;qb</title>
<path fill="none" stroke="black" d="M1778.4,-216.41C1781.51,-208.34 1785.33,-198.43 1788.83,-189.35"/>
<polygon fill="black" stroke="black" points="1792.13,-190.55 1792.46,-179.96 1785.6,-188.03 1792.13,-190.55"/>
</g>
<!-- mg&#45;&gt;kf -->
<g id="edge32" class="edge">
<title>mg&#45;&gt;kf</title>
<path fill="none" stroke="black" d="M1190.42,-864.41C1186.63,-856.13 1181.97,-845.92 1177.73,-836.66"/>
<polygon fill="black" stroke="black" points="1180.87,-835.11 1173.53,-827.47 1174.5,-838.02 1180.87,-835.11"/>
</g>
<!-- mg&#45;&gt;mk -->
<g id="edge31" class="edge">
<title>mg&#45;&gt;mk</title>
<path fill="none" stroke="black" d="M1196.69,-863.85C1198.7,-826.57 1211.7,-737.94 1221.42,-693.44"/>
<polygon fill="black" stroke="black" points="1224.84,-694.17 1223.68,-683.64 1218.02,-692.6 1224.84,-694.17"/>
</g>
<!-- rx -->
<g id="node46" class="node">
<title>rx</title>
<ellipse fill="none" stroke="black" cx="967" cy="-378" rx="27" ry="18"/>
<text text-anchor="middle" x="967" y="-374.3" font-family="Times,serif" font-size="14.00">rx</text>
</g>
<!-- zh&#45;&gt;rx -->
<g id="edge47" class="edge">
<title>zh&#45;&gt;rx</title>
<path fill="none" stroke="black" d="M967,-431.7C967,-423.98 967,-414.71 967,-406.11"/>
<polygon fill="black" stroke="black" points="970.5,-406.1 967,-396.1 963.5,-406.1 970.5,-406.1"/>
</g>
<!-- bm&#45;&gt;kx -->
<g id="edge100" class="edge">
<title>bm&#45;&gt;kx</title>
<path fill="none" stroke="black" d="M1339,-287.7C1339,-279.98 1339,-270.71 1339,-262.11"/>
<polygon fill="black" stroke="black" points="1342.5,-262.1 1339,-252.1 1335.5,-262.1 1342.5,-262.1"/>
</g>
<!-- bp&#45;&gt;zh -->
<g id="edge109" class="edge">
<title>bp&#45;&gt;zh</title>
<path fill="none" stroke="black" d="M907.98,-506.83C918.51,-496.87 932.78,-483.37 944.66,-472.14"/>
<polygon fill="black" stroke="black" points="947.19,-474.56 952.05,-465.14 942.38,-469.47 947.19,-474.56"/>
</g>
<!-- gd&#45;&gt;ml -->
<g id="edge79" class="edge">
<title>gd&#45;&gt;ml</title>
<path fill="none" stroke="black" d="M703.78,-864.78C701.59,-854.3 700.52,-840.35 700,-828 696.87,-753.48 697.21,-665.44 701.01,-622.01"/>
<polygon fill="black" stroke="black" points="704.5,-622.27 702.05,-611.97 697.54,-621.55 704.5,-622.27"/>
</g>
<!-- rm -->
<g id="node58" class="node">
<title>rm</title>
<ellipse fill="none" stroke="black" cx="745" cy="-810" rx="27" ry="18"/>
<text text-anchor="middle" x="745" y="-806.3" font-family="Times,serif" font-size="14.00">rm</text>
</g>
<!-- gd&#45;&gt;rm -->
<g id="edge80" class="edge">
<title>gd&#45;&gt;rm</title>
<path fill="none" stroke="black" d="M720.58,-864.41C724.37,-856.13 729.03,-845.92 733.27,-836.66"/>
<polygon fill="black" stroke="black" points="736.5,-838.02 737.47,-827.47 730.13,-835.11 736.5,-838.02"/>
</g>
<!-- zf -->
<g id="node54" class="node">
<title>zf</title>
<ellipse fill="none" stroke="black" cx="585" cy="-162" rx="27" ry="18"/>
<text text-anchor="middle" x="585" y="-158.3" font-family="Times,serif" font-size="14.00">zf</text>
</g>
<!-- kq&#45;&gt;zf -->
<g id="edge108" class="edge">
<title>kq&#45;&gt;zf</title>
<path fill="none" stroke="black" d="M599.4,-216.05C597.25,-208.14 594.65,-198.54 592.24,-189.69"/>
<polygon fill="black" stroke="black" points="595.55,-188.52 589.56,-179.79 588.8,-190.36 595.55,-188.52"/>
</g>
<!-- md&#45;&gt;hs -->
<g id="edge42" class="edge">
<title>md&#45;&gt;hs</title>
<path fill="none" stroke="black" d="M1601,-359.7C1601,-351.98 1601,-342.71 1601,-334.11"/>
<polygon fill="black" stroke="black" points="1604.5,-334.1 1601,-324.1 1597.5,-334.1 1604.5,-334.1"/>
</g>
<!-- vl&#45;&gt;mk -->
<g id="edge78" class="edge">
<title>vl&#45;&gt;mk</title>
<path fill="none" stroke="black" d="M1252.85,-102.13C1218.2,-122.94 1151,-171.25 1151,-233 1151,-451 1151,-451 1151,-451 1151,-523.29 1191.16,-601.29 1214.21,-640.1"/>
<polygon fill="black" stroke="black" points="1211.49,-642.36 1219.67,-649.1 1217.48,-638.73 1211.49,-642.36"/>
</g>
<!-- zk -->
<g id="node57" class="node">
<title>zk</title>
<ellipse fill="none" stroke="black" cx="1362" cy="-18" rx="27" ry="18"/>
<text text-anchor="middle" x="1362" y="-14.3" font-family="Times,serif" font-size="14.00">zk</text>
</g>
<!-- vl&#45;&gt;zk -->
<g id="edge77" class="edge">
<title>vl&#45;&gt;zk</title>
<path fill="none" stroke="black" d="M1289.74,-75.83C1303.08,-65.34 1321.96,-50.49 1337.08,-38.6"/>
<polygon fill="black" stroke="black" points="1339.34,-41.28 1345.03,-32.35 1335.01,-35.78 1339.34,-41.28"/>
</g>
<!-- th&#45;&gt;zh -->
<g id="edge46" class="edge">
<title>th&#45;&gt;zh</title>
<path fill="none" stroke="black" d="M1026.46,-649.5C1019.36,-639.3 1010.58,-625.41 1005,-612 986.26,-566.98 975.66,-510.85 970.65,-478.15"/>
<polygon fill="black" stroke="black" points="974.08,-477.4 969.16,-468.01 967.15,-478.42 974.08,-477.4"/>
</g>
<!-- kc&#45;&gt;ps -->
<g id="edge48" class="edge">
<title>kc&#45;&gt;ps</title>
<path fill="none" stroke="black" d="M298.81,-320.34C325.84,-343.43 376,-393.71 376,-449 376,-739 376,-739 376,-739 376,-745.64 314.78,-891.77 309,-900 300.12,-912.63 287.76,-924.45 276.73,-933.71"/>
<polygon fill="black" stroke="black" points="274.21,-931.25 268.64,-940.26 278.61,-936.69 274.21,-931.25"/>
</g>
<!-- kc&#45;&gt;jk -->
<g id="edge49" class="edge">
<title>kc&#45;&gt;jk</title>
<path fill="none" stroke="black" d="M282,-287.7C282,-279.98 282,-270.71 282,-262.11"/>
<polygon fill="black" stroke="black" points="285.5,-262.1 282,-252.1 278.5,-262.1 285.5,-262.1"/>
</g>
<!-- dm&#45;&gt;qx -->
<g id="edge96" class="edge">
<title>dm&#45;&gt;qx</title>
<path fill="none" stroke="black" d="M1687.19,-576.76C1682.58,-568.28 1676.84,-557.71 1671.68,-548.2"/>
<polygon fill="black" stroke="black" points="1674.61,-546.27 1666.77,-539.15 1668.46,-549.61 1674.61,-546.27"/>
</g>
<!-- jn&#45;&gt;ml -->
<g id="edge52" class="edge">
<title>jn&#45;&gt;ml</title>
<path fill="none" stroke="black" d="M640.18,-396.03C638.76,-414.16 637.9,-443.56 644,-468 653.34,-505.42 675.32,-544.49 690.67,-568.78"/>
<polygon fill="black" stroke="black" points="687.83,-570.83 696.19,-577.33 693.71,-567.03 687.83,-570.83"/>
</g>
<!-- ll -->
<g id="node50" class="node">
<title>ll</title>
<ellipse fill="none" stroke="black" cx="604" cy="-306" rx="27" ry="18"/>
<text text-anchor="middle" x="604" y="-302.3" font-family="Times,serif" font-size="14.00">ll</text>
</g>
<!-- jn&#45;&gt;ll -->
<g id="edge51" class="edge">
<title>jn&#45;&gt;ll</title>
<path fill="none" stroke="black" d="M633.19,-360.76C628.58,-352.28 622.84,-341.71 617.68,-332.2"/>
<polygon fill="black" stroke="black" points="620.61,-330.27 612.77,-323.15 614.46,-333.61 620.61,-330.27"/>
</g>
<!-- ll&#45;&gt;ml -->
<g id="edge88" class="edge">
<title>ll&#45;&gt;ml</title>
<path fill="none" stroke="black" d="M602.94,-324.2C602.16,-342.23 601.87,-371.31 606,-396 617.09,-462.26 616.51,-482.95 652,-540 659.87,-552.65 671.43,-564.41 681.92,-573.62"/>
<polygon fill="black" stroke="black" points="679.75,-576.37 689.65,-580.13 684.26,-571.01 679.75,-576.37"/>
</g>
<!-- ll&#45;&gt;kq -->
<g id="edge89" class="edge">
<title>ll&#45;&gt;kq</title>
<path fill="none" stroke="black" d="M604,-287.7C604,-279.98 604,-270.71 604,-262.11"/>
<polygon fill="black" stroke="black" points="607.5,-262.1 604,-252.1 600.5,-262.1 607.5,-262.1"/>
</g>
<!-- pd&#45;&gt;zh -->
<g id="edge53" class="edge">
<title>pd&#45;&gt;zh</title>
<path fill="none" stroke="black" d="M1034.05,-576.29C1026.34,-558.18 1013.24,-528.56 1000,-504 994.89,-494.51 988.76,-484.4 983.19,-475.57"/>
<polygon fill="black" stroke="black" points="985.99,-473.45 977.65,-466.93 980.1,-477.23 985.99,-473.45"/>
</g>
<!-- pp -->
<g id="node53" class="node">
<title>pp</title>
<ellipse fill="none" stroke="black" cx="1620" cy="-450" rx="27" ry="18"/>
<text text-anchor="middle" x="1620" y="-446.3" font-family="Times,serif" font-size="14.00">pp</text>
</g>
<!-- qx&#45;&gt;pp -->
<g id="edge65" class="edge">
<title>qx&#45;&gt;pp</title>
<path fill="none" stroke="black" d="M1649.19,-504.76C1644.58,-496.28 1638.84,-485.71 1633.68,-476.2"/>
<polygon fill="black" stroke="black" points="1636.61,-474.27 1628.77,-467.15 1630.46,-477.61 1636.61,-474.27"/>
</g>
<!-- pp&#45;&gt;kh -->
<g id="edge61" class="edge">
<title>pp&#45;&gt;kh</title>
<path fill="none" stroke="black" d="M1616.64,-467.97C1611.69,-494.52 1603,-547.56 1603,-593 1603,-667 1603,-667 1603,-667 1603,-710.91 1626.77,-757.33 1643.61,-784.7"/>
<polygon fill="black" stroke="black" points="1640.7,-786.65 1649.01,-793.22 1646.61,-782.9 1640.7,-786.65"/>
</g>
<!-- pp&#45;&gt;md -->
<g id="edge62" class="edge">
<title>pp&#45;&gt;md</title>
<path fill="none" stroke="black" d="M1615.4,-432.05C1613.25,-424.14 1610.65,-414.54 1608.24,-405.69"/>
<polygon fill="black" stroke="black" points="1611.55,-404.52 1605.56,-395.79 1604.8,-406.36 1611.55,-404.52"/>
</g>
<!-- zf&#45;&gt;ml -->
<g id="edge63" class="edge">
<title>zf&#45;&gt;ml</title>
<path fill="none" stroke="black" d="M577.89,-179.7C567.4,-205.89 549,-258.46 549,-305 549,-451 549,-451 549,-451 549,-517.8 628.09,-561.15 674.35,-580.8"/>
<polygon fill="black" stroke="black" points="673.11,-584.08 683.69,-584.64 675.77,-577.6 673.11,-584.08"/>
</g>
<!-- bd -->
<g id="node55" class="node">
<title>bd</title>
<ellipse fill="none" stroke="black" cx="585" cy="-90" rx="27" ry="18"/>
<text text-anchor="middle" x="585" y="-86.3" font-family="Times,serif" font-size="14.00">bd</text>
</g>
<!-- zf&#45;&gt;bd -->
<g id="edge64" class="edge">
<title>zf&#45;&gt;bd</title>
<path fill="none" stroke="black" d="M585,-143.7C585,-135.98 585,-126.71 585,-118.11"/>
<polygon fill="black" stroke="black" points="588.5,-118.1 585,-108.1 581.5,-118.1 588.5,-118.1"/>
</g>
<!-- bd&#45;&gt;ml -->
<g id="edge95" class="edge">
<title>bd&#45;&gt;ml</title>
<path fill="none" stroke="black" d="M609.96,-97.2C661.1,-111.56 773,-152.22 773,-233 773,-379 773,-379 773,-379 773,-449.97 739.45,-528.53 720.19,-567.78"/>
<polygon fill="black" stroke="black" points="716.98,-566.37 715.63,-576.88 723.24,-569.5 716.98,-566.37"/>
</g>
<!-- bd&#45;&gt;qr -->
<g id="edge94" class="edge">
<title>bd&#45;&gt;qr</title>
<path fill="none" stroke="black" d="M578.6,-72.41C575.49,-64.34 571.67,-54.43 568.17,-45.35"/>
<polygon fill="black" stroke="black" points="571.4,-44.03 564.54,-35.96 564.87,-46.55 571.4,-44.03"/>
</g>
<!-- qb&#45;&gt;kh -->
<g id="edge98" class="edge">
<title>qb&#45;&gt;kh</title>
<path fill="none" stroke="black" d="M1804.53,-179.84C1812.69,-206.21 1827,-259.02 1827,-305 1827,-667 1827,-667 1827,-667 1827,-736.43 1742.19,-779.02 1693.45,-797.76"/>
<polygon fill="black" stroke="black" points="1692.08,-794.53 1683.93,-801.3 1694.52,-801.1 1692.08,-794.53"/>
</g>
<!-- qb&#45;&gt;rj -->
<g id="edge97" class="edge">
<title>qb&#45;&gt;rj</title>
<path fill="none" stroke="black" d="M1799,-143.7C1799,-135.98 1799,-126.71 1799,-118.11"/>
<polygon fill="black" stroke="black" points="1802.5,-118.1 1799,-108.1 1795.5,-118.1 1802.5,-118.1"/>
</g>
<!-- zk&#45;&gt;mk -->
<g id="edge103" class="edge">
<title>zk&#45;&gt;mk</title>
<path fill="none" stroke="black" d="M1378.32,-32.91C1404.02,-56.44 1451,-106.88 1451,-161 1451,-523 1451,-523 1451,-523 1451,-609.83 1328.75,-646.05 1266.1,-658.91"/>
<polygon fill="black" stroke="black" points="1265.36,-655.49 1256.22,-660.85 1266.71,-662.36 1265.36,-655.49"/>
</g>
<!-- rm&#45;&gt;sl -->
<g id="edge92" class="edge">
<title>rm&#45;&gt;sl</title>
<path fill="none" stroke="black" d="M753.81,-792.76C758.42,-784.28 764.16,-773.71 769.32,-764.2"/>
<polygon fill="black" stroke="black" points="772.54,-765.61 774.23,-755.15 766.39,-762.27 772.54,-765.61"/>
</g>
<!-- rm&#45;&gt;ml -->
<g id="edge93" class="edge">
<title>rm&#45;&gt;ml</title>
<path fill="none" stroke="black" d="M741.95,-791.85C735.37,-754.74 719.74,-666.75 711.8,-622.05"/>
<polygon fill="black" stroke="black" points="715.2,-621.17 710.01,-611.94 708.31,-622.39 715.2,-621.17"/>
</g>
<!-- broadcaster -->
<g id="node59" class="node">
<title>broadcaster</title>
<ellipse fill="none" stroke="black" cx="971" cy="-954" rx="66.09" ry="18"/>
<text text-anchor="middle" x="971" y="-950.3" font-family="Times,serif" font-size="14.00">broadcaster</text>
</g>
<!-- broadcaster&#45;&gt;hf -->
<g id="edge107" class="edge">
<title>broadcaster&#45;&gt;hf</title>
<path fill="none" stroke="black" d="M1031.84,-946.82C1171.38,-932.64 1511.06,-898.13 1623.32,-886.73"/>
<polygon fill="black" stroke="black" points="1623.86,-890.19 1633.45,-885.7 1623.15,-883.23 1623.86,-890.19"/>
</g>
<!-- broadcaster&#45;&gt;sr -->
<g id="edge104" class="edge">
<title>broadcaster&#45;&gt;sr</title>
<path fill="none" stroke="black" d="M912.34,-945.58C797.92,-931.09 547.95,-899.45 454.35,-887.6"/>
<polygon fill="black" stroke="black" points="454.6,-884.11 444.24,-886.32 453.72,-891.05 454.6,-884.11"/>
</g>
<!-- broadcaster&#45;&gt;mg -->
<g id="edge106" class="edge">
<title>broadcaster&#45;&gt;mg</title>
<path fill="none" stroke="black" d="M1013.16,-940C1056.78,-926.55 1124.03,-905.81 1164.26,-893.41"/>
<polygon fill="black" stroke="black" points="1165.35,-896.73 1173.87,-890.44 1163.28,-890.04 1165.35,-896.73"/>
</g>
<!-- broadcaster&#45;&gt;gd -->
<g id="edge105" class="edge">
<title>broadcaster&#45;&gt;gd</title>
<path fill="none" stroke="black" d="M925.76,-940.73C874.84,-926.91 793.24,-904.77 747.31,-892.31"/>
<polygon fill="black" stroke="black" points="748.09,-888.89 737.52,-889.65 746.26,-895.65 748.09,-888.89"/>
</g>
<!-- button -->
<g id="node60" class="node">
<title>button</title>
<ellipse fill="none" stroke="black" cx="971" cy="-1026" rx="41.69" ry="18"/>
<text text-anchor="middle" x="971" y="-1022.3" font-family="Times,serif" font-size="14.00">button</text>
</g>
<!-- button&#45;&gt;broadcaster -->
<g id="edge110" class="edge">
<title>button&#45;&gt;broadcaster</title>
<path fill="none" stroke="black" d="M971,-1007.7C971,-999.98 971,-990.71 971,-982.11"/>
<polygon fill="black" stroke="black" points="974.5,-982.1 971,-972.1 967.5,-982.1 974.5,-982.1"/>
</g>
</g>
</svg>
